<svg xmlns="http://www.w3.org/2000/svg" viewBox="0 0 272 85" height="85" width="272">
    <path d="M102.857 10.523c-15.373 0-27.593 12.455-27.593 27.75 0 15.454 12.22 27.91 27.593 27.91 9.224 0 17.268-4.493 22.157-11.275l-8.358-6.146c-3.076 4.412-7.649 7.093-13.484 7.093-9.855 0-16.951-7.882-16.951-17.582 0-9.696 7.176-17.423 17.029-17.423 5.757 0 10.33 2.68 13.406 7.017l8.358-6.068c-4.889-6.86-12.933-11.276-22.157-11.276zm-87.507.631v54.557c0 4.335-1.894 7.963-6.702 7.963-.473 0-4.574-.081-6.7-.87L1 82.82c2.681.788 6.15 1.182 7.648 1.182 12.851 0 17.659-8.358 17.659-18.291V11.154H15.35zm17.58 0v54.319h23.175c11.986 0 17.112-8.04 17.112-15.53 0-6.15-3.39-12.299-10.328-13.482 5.913-1.812 7.488-7.253 7.488-11.275 0-8.2-6.227-14.032-15.924-14.032H32.93zm10.957 9.698h9.933c3.864 0 5.598 2.601 5.598 5.912 0 3.705-2.129 5.992-5.598 5.992h-9.933V20.852zm0 21.048h10.802c5.204 0 7.489 3.55 7.489 6.938 0 3.627-2.523 6.937-7.649 6.937H43.887V41.9z" fill="#0078BB"/>
    <path d="M139.049 1v74.15h1.13V1h-1.13zm29.822 9.71c-3.955 0-7.064 3.192-7.064 7.147 0 3.934 3.109 7.123 7.064 7.123 3.934 0 7.08-3.189 7.08-7.123 0-3.955-3.146-7.146-7.08-7.146zm82.736 0c-3.955 0-7.064 3.192-7.064 7.147 0 3.934 3.109 7.123 7.064 7.123 3.934 0 7.082-3.189 7.082-7.123 0-3.955-3.148-7.146-7.082-7.146zm-94.36.185v13.964c0 1.11-.484 2.037-1.716 2.037-.118 0-1.169-.02-1.715-.222l-.242 2.562c.686.202 1.575.305 1.957.305 3.289 0 4.52-2.138 4.52-4.682V10.895h-2.805zm20.32 0v8.939c0 3.208 2.482 5.146 5.308 5.146 2.845 0 5.326-1.938 5.326-5.146v-8.94h-2.805v8.778c0 1.877-1.209 2.644-2.521 2.644-1.29 0-2.504-.767-2.504-2.644v-8.777h-2.805zm13.078 0v13.902h2.804v-4.983h.947l3.311 4.983h3.29l-3.612-5.125c2.342-.484 3.369-2.262 3.369-4.238 0-2.28-1.372-4.54-4.559-4.54h-5.55zm12.834 0v13.902h2.804V16.08l5.045 8.717h2.522V10.895h-2.803v8.615l-4.965-8.615h-2.603zm17.152 0l-5.186 13.902h2.985l1.111-3.328h5.205l1.131 3.328h2.947l-5.166-13.902h-3.027zm9.789 0v13.902h8.068v-2.483h-5.267v-11.42h-2.801zm30.025 0v13.902h2.805v-5.61h4.602v-2.46h-4.602v-3.35h5.793v-2.482h-8.598zm-91.574 2.462c2.482 0 4.256 1.997 4.256 4.5 0 2.504-1.774 4.498-4.256 4.498-2.503 0-4.258-1.994-4.258-4.498 0-2.503 1.755-4.5 4.258-4.5zm82.736 0c2.482 0 4.256 1.997 4.256 4.5 0 2.504-1.774 4.498-4.256 4.498-2.503 0-4.26-1.994-4.26-4.498 0-2.503 1.757-4.5 4.26-4.5zm-58.158.02h2.461c1.312 0 2.018 1.01 2.018 2.117 0 1.11-.665 2.059-2.24 2.059h-2.239v-4.176zm28.676.422l1.775 5.228h-3.53l1.755-5.228zm-41.37 17.25c-3.955 0-7.062 3.189-7.062 7.144 0 3.934 3.107 7.125 7.063 7.125 3.934 0 7.08-3.19 7.08-7.125 0-3.955-3.146-7.144-7.08-7.144zm24.438 0c-3.955 0-7.06 3.189-7.06 7.144 0 3.934 3.105 7.125 7.06 7.125 3.934 0 7.084-3.19 7.084-7.125 0-3.955-3.15-7.144-7.084-7.144zm15.881 0c-3.996 0-7.101 3.189-7.101 7.144 0 3.934 3.105 7.125 7.101 7.125 3.999 0 6.76-2.303 6.76-7.447h-7.002v2.281h3.938a1.99 1.99 0 0 1-.082.342c-.364 1.455-1.796 2.32-3.614 2.32-2.42 0-4.297-2.139-4.297-4.62 0-2.483 1.877-4.54 4.297-4.54 1.21 0 2.32.526 3.108 1.373l2.039-1.756c-1.21-1.352-3.047-2.222-5.147-2.222zm20.987.023c-3.935 0-7.061 3.187-7.061 7.102 0 3.955 3.126 7.144 7.06 7.144a6.963 6.963 0 0 0 5.672-2.888l-2.138-1.573c-.788 1.13-1.958 1.815-3.453 1.815-2.52 0-4.336-2.016-4.336-4.498s1.835-4.46 4.357-4.46c1.474 0 2.644.686 3.432 1.794l2.138-1.551c-1.25-1.756-3.31-2.885-5.671-2.885zm-84.975.16v13.903h5.932c3.065 0 4.378-2.058 4.378-3.975 0-1.573-.867-3.147-2.644-3.451 1.514-.465 1.918-1.855 1.918-2.885 0-2.097-1.594-3.592-4.076-3.592h-5.508zm12.068 0v13.903h2.805V31.232h-2.805zm20.442 0v13.903h8.07v-2.483h-5.27v-11.42h-2.8zm40.459 0v13.903h2.804V31.232h-2.804zm23.306 0l-5.183 13.903h2.984l1.111-3.328h5.206l1.128 3.328h2.948l-5.166-13.903h-3.028zm9.79 0v13.903h8.07v-2.483h-5.266v-11.42h-2.805zm-82.395 2.463c2.482 0 4.256 1.995 4.256 4.498 0 2.504-1.774 4.5-4.256 4.5-2.504 0-4.258-1.996-4.258-4.5 0-2.503 1.754-4.498 4.258-4.498zm24.437 0c2.482 0 4.258 1.995 4.258 4.498 0 2.504-1.776 4.5-4.258 4.5-2.503 0-4.255-1.996-4.255-4.5 0-2.503 1.752-4.498 4.255-4.498zm-45.302.018h2.54c.99 0 1.434.668 1.434 1.516 0 .949-.543 1.53-1.433 1.53h-2.541v-3.046zm94.963.424l1.777 5.228h-3.53l1.753-5.228zm-94.963 4.967h2.763c1.331 0 1.918.904 1.918 1.773 0 .928-.645 1.777-1.957 1.777h-2.724v-3.55zm64.918 11.476c-2.665 0-4.803 1.655-4.803 4.137 0 1.25.545 3.086 3.592 3.892l1.697.485c1.188.363 1.754.91 1.754 1.676 0 .99-.83 1.634-2.08 1.634-1.291 0-2.258-.827-2.28-1.836h-2.804c0 2.464 2.038 4.278 5.004 4.278 2.624 0 4.982-1.453 4.982-4.217 0-2.361-1.833-3.47-3.933-4.057l-1.555-.443c-1.452-.403-1.551-1.13-1.551-1.475 0-.927.827-1.592 1.916-1.592 1.207 0 1.897.768 1.897 1.754h2.804c0-2.64-2.016-4.236-4.64-4.236zm-61.508.022c-3.937 0-7.063 3.186-7.063 7.101 0 3.956 3.126 7.145 7.063 7.145a6.96 6.96 0 0 0 5.67-2.889l-2.139-1.572c-.788 1.13-1.958 1.814-3.453 1.814-2.52 0-4.336-2.016-4.336-4.498s1.835-4.459 4.357-4.459c1.474 0 2.644.686 3.432 1.797l2.139-1.555c-1.25-1.756-3.31-2.884-5.67-2.884zm7.525.16v13.902h2.809v-5.65h5.183v5.65h2.805V50.762h-2.805v5.73h-5.183v-5.73h-2.809zm13.403 0v13.902h8.898v-2.48h-6.094v-3.11h5.184v-2.521h-5.184v-3.309h5.91v-2.482h-8.714zm12.55 0l-1.715 13.902h2.864l1.011-8.615 3.43 7.043h2.197l3.391-7.043 1.01 8.615h2.865l-1.695-13.902h-2.422l-4.256 9.12-4.299-9.12h-2.38zm17.698 0v13.902h2.804V50.762h-2.804zm16.265 0v2.482h3.836v11.42h2.8v-11.42h3.835v-2.482h-10.47zm12.19 0v13.902h2.804v-4.982h.95l3.306 4.982h3.29l-3.612-5.125c2.342-.484 3.37-2.262 3.37-4.238 0-2.28-1.372-4.54-4.561-4.54h-5.547zm10.754 0l5.388 7.588v6.314h2.805v-6.273l5.406-7.63h-3.328l-3.49 5.288-3.432-5.287h-3.35zm-7.95 2.482h2.46c1.312 0 2.019 1.01 2.019 2.117 0 1.11-.667 2.059-2.242 2.059h-2.237v-4.176z" fill="#231f20"/>
</svg>
